HIERARCHY
ROOT Hips
{
  OFFSET 13.6774 106.653 -34.4427
  CHANNELS 6 Xposition Yposition Zposition Zrotation Xrotation Yrotation
  JOINT ToSpine
  {
    OFFSET -2.69724 7.43032 -0.144315
    CHANNELS 3 Zrotation Xrotation Yrotation
    JOINT Spine
    {
      OFFSET -0.0310711 10.7595 1.96963
      CHANNELS 3 Zrotation Xrotation Yrotation
      JOINT Spine1
      {
        OFFSET 19.9056 3.91189 0.764692
        CHANNELS 3 Zrotation Xrotation Yrotation
        JOINT Neck
        {
          OFFSET 25.9749 7.03908 -0.130764
          CHANNELS 3 Zrotation Xrotation Yrotation
          JOINT Head
          {
            OFFSET 9.52751 0.295786 -0.907742
            CHANNELS 3 Zrotation Xrotation Yrotation
            End Site
            {
              OFFSET 16.4037 0.713936 2.7358
            }
          }
        }
        JOINT LeftShoulder
        {
          OFFSET 17.7449 4.33886 11.7777
          CHANNELS 3 Zrotation Xrotation Yrotation
          JOINT LeftArm
          {
            OFFSET 0.911315 1.27913 9.80584
            CHANNELS 3 Zrotation Xrotation Yrotation
            JOINT LeftForeArm
            {
              OFFSET 28.6126 1.18197 -3.53199
              CHANNELS 3 Zrotation Xrotation Yrotation
              JOINT LeftHand
              {
                OFFSET 27.5088 0.0218783 0.327423
                CHANNELS 3 Zrotation Xrotation Yrotation
                End Site
                {
                  OFFSET 18.6038 -0.000155887 0.382096
                }
              }
            }
          }
        }
        JOINT RightShoulder
        {
          OFFSET 17.1009 2.89543 -12.2328
          CHANNELS 3 Zrotation Xrotation Yrotation
          JOINT RightArm
          {
            OFFSET 1.4228 0.178766 -10.211
            CHANNELS 3 Zrotation Xrotation Yrotation
            JOINT RightForeArm
            {
              OFFSET 28.733 1.87905 2.64907
              CHANNELS 3 Zrotation Xrotation Yrotation
              JOINT RightHand
              {
                OFFSET 27.4588 0.290562 -0.101845
                CHANNELS 3 Zrotation Xrotation Yrotation
                End Site
                {
                  OFFSET 17.8396 -0.255518 -0.000602873
                }
              }
            }
          }
        }
      }
    }
  }
  JOINT LeftUpLeg
  {
    OFFSET -5.61296 -2.22332 -10.2353
    CHANNELS 3 Zrotation Xrotation Yrotation
    JOINT LeftLeg
    {
      OFFSET 2.56703 -44.7417 -7.93097
      CHANNELS 3 Zrotation Xrotation Yrotation
      JOINT LeftFoot
      {
        OFFSET 3.16933 -46.5642 -3.96578
        CHANNELS 3 Zrotation Xrotation Yrotation
        JOINT LeftToeBase
        {
          OFFSET 0.346054 -6.02161 12.8035
          CHANNELS 3 Zrotation Xrotation Yrotation
          End Site
          {
            OFFSET 0.134235 -1.35082 5.13018
          }
        }
      }
    }
  }
  JOINT RightUpLeg
  {
    OFFSET -5.7928 -1.72406 10.6446
    CHANNELS 3 Zrotation Xrotation Yrotation
    JOINT RightLeg
    {
      OFFSET -2.57161 -44.7178 -7.85259
      CHANNELS 3 Zrotation Xrotation Yrotation
      JOINT RightFoot
      {
        OFFSET -3.10148 -46.5936 -4.03391
        CHANNELS 3 Zrotation Xrotation Yrotation
        JOINT RightToeBase
        {
          OFFSET -0.0828122 -6.13587 12.8035
          CHANNELS 3 Zrotation Xrotation Yrotation
          End Site
          {
            OFFSET -0.131328 -1.35082 5.13018
          }
        }
      }
    }
  }
}
MOTION
Frames: 8
Frame Time: 0.03333333333333333
0.0000 93.1000 0.0000 2.1803 -57.1789 -88.8825 -70.9958 -0.3817 88.0044 91.2055 63.9200 -10.1648 2.7616 11.3350 9.2561 -129.1267 21.1801 172.4248 -147.7644 60.0192 -176.1909 0.5033 -16.8903 -18.0994 -124.0869 38.6935 -101.7062 14.4534 -8.0103 -115.0156 -0.0945 -0.4184 0.1585 -0.7592 3.5838 24.7424 -73.1683 -41.9522 134.0009 8.7394 4.9371 119.5618 0.4092 0.4657 0.4684 -62.9584 7.2306 99.8498 -1.3297 27.2830 1.7592 -3.7314 -18.1179 -1.9541 5.2465 -13.4839 8.2901 -11.9045 10.1044 102.9905 3.8059 58.1190 0.9976 -6.9760 -7.7174 0.8719 1.4266 -14.4207 -2.4277 
0.0000 93.1000 0.0000 10.0193 -57.0074 -80.8823 -70.9954 -0.3518 88.0041 90.1327 64.2524 -8.8919 3.0753 11.8410 8.4044 -126.2581 21.0276 170.3580 -145.5647 60.0874 -177.8344 0.4466 -17.2405 -18.3392 -117.9542 41.3165 -107.6826 15.4548 -7.8598 -112.2119 0.2320 -0.3121 -0.0578 -0.7470 4.0499 23.6992 -76.6714 -42.5137 133.5430 10.0040 5.1938 118.9152 0.2349 0.3595 0.2708 -61.6479 7.7125 98.9273 -1.4248 26.2585 0.0651 -4.1120 -16.7897 -1.8599 5.4589 -13.8811 10.1232 -13.9072 6.6444 101.2017 3.6270 56.2394 0.0953 -5.7831 -7.5754 0.9924 1.0337 -13.0521 -3.2773 
0.0000 93.1000 0.0000 18.2405 -56.9367 -71.0787 -70.9961 -0.4216 88.0053 88.9071 64.8744 -7.2601 2.9500 12.0696 8.1159 -124.2508 21.0140 170.3168 -145.4022 61.0073 -175.9824 0.6508 -17.3716 -18.1602 -113.4117 43.2428 -113.6924 15.0127 -6.5597 -110.2290 0.2730 -0.3916 -0.0310 -0.5692 4.1864 21.0888 -78.8532 -44.6855 133.2879 11.5823 6.1037 117.8842 0.2959 0.4057 0.4355 -60.7675 8.0036 99.0876 -0.6814 25.4431 -1.4965 -4.1210 -15.4610 -1.8713 5.2647 -14.0107 10.3065 -16.1214 3.9293 100.1549 2.8276 54.1554 -0.1450 -6.4711 -7.9843 1.2749 1.2097 -12.5321 -1.7333 
0.0000 93.1000 0.0000 25.9750 -56.3168 -62.9844 -70.9984 0.0416 88.0045 86.1315 65.3171 -4.6436 2.7770 12.3111 7.6849 -122.2991 21.1698 168.6496 -145.6584 61.9366 -175.1568 0.6792 -17.4790 -17.6791 -107.7974 44.4289 -118.6329 15.9668 -6.3408 -106.9560 0.2917 -0.0215 -0.2213 -0.3618 4.3884 18.4366 -83.0671 -46.2994 130.9427 12.7698 6.5294 117.1482 -0.0246 0.0655 0.2379 -60.1865 8.2773 99.5850 -1.2899 24.1670 -1.2407 -4.1709 -12.6829 -1.8528 5.7999 -15.4760 12.7623 -18.1075 1.3028 97.9854 1.9456 51.9041 -1.8243 -6.0597 -8.1006 1.4258 1.1220 -10.6421 -0.5987 
0.0000 93.1000 0.0000 33.1669 -54.4993 -54.8097 -71.0002 -0.5143 88.0054 85.8881 65.9287 -3.1910 2.5610 13.1035 6.9459 -121.1775 21.5877 168.1989 -151.5356 63.1018 -171.5115 1.0595 -17.1061 -16.7708 -101.1684 45.9021 -125.6278 17.2629 -4.8914 -103.3356 0.3111 -0.5817 0.0124 -0.2372 4.8845 16.9242 -89.1894 -46.8902 127.0625 12.7933 6.6033 116.0035 0.4119 0.5863 0.7268 -58.7952 9.2851 99.3096 -1.4039 24.5785 -1.0475 -4.1588 -9.8698 -1.5706 6.3104 -16.7812 12.6308 -19.8004 -1.9916 94.9800 1.3527 49.1605 -1.1920 -6.4930 -7.2010 1.0734 1.7487 -10.7080 0.5508 
0.0000 93.1000 0.0000 39.0707 -52.0764 -47.8953 -71.0035 -0.6247 88.0068 87.1284 66.8867 -3.1284 2.6968 14.0052 6.2382 -118.3692 21.4989 166.3927 -152.5458 63.9126 -168.3800 0.0683 -17.1240 -16.1046 -96.0121 46.8587 -130.7657 18.7813 -3.4606 -100.3194 0.1608 -0.4864 -0.0264 -0.8245 5.5308 16.2883 -94.8288 -46.6302 121.8769 12.6250 6.1929 115.7521 0.2638 0.3988 0.2795 -58.0219 9.6098 99.7644 -1.1425 26.4686 0.8593 -4.3096 -9.1228 -0.8694 5.5881 -14.3795 11.5780 -21.9651 -5.1716 92.9877 2.1807 46.3032 -0.9695 -6.4073 -5.5076 0.9492 1.4000 -10.1625 -1.5900 
0.0000 93.1000 0.0000 43.9448 -50.0554 -41.7948 -71.0047 -0.5400 88.0071 87.9348 67.2221 -2.2207 2.7187 14.5748 6.4369 -116.2616 21.7015 162.7051 -151.5241 64.9719 -169.2062 -0.7689 -16.9406 -15.5356 -91.2231 47.2697 -135.5647 19.0286 -3.0776 -98.2714 -0.0440 -0.3121 -0.0687 -1.3940 6.3029 16.3317 -101.5649 -45.1777 116.9534 13.6860 6.3417 114.7977 0.1108 0.2743 0.0050 -56.7767 10.2331 99.9836 -1.1871 27.1254 2.9468 -4.8648 -8.4527 -0.3584 4.5392 -11.5015 8.9292 -24.9304 -7.6093 89.6473 1.0733 43.0993 -1.9687 -6.6458 -3.4256 0.7664 0.7743 -11.8295 0.9847 
0.0000 93.1000 0.0000 47.8774 -47.8876 -36.9970 -71.0023 -0.6894 88.0086 85.9986 68.2139 -1.0282 3.3371 15.0770 6.6475 -114.2167 21.9644 161.3658 -153.4533 66.0688 -167.0321 0.0549 -16.7985 -15.0981 -87.1874 47.0391 -139.6733 18.2012 -2.0417 -95.3483 0.1402 -0.5410 -0.0092 -1.0325 6.8444 16.8920 -106.9218 -43.3427 112.0128 14.5323 6.2311 114.0837 0.1347 0.5203 0.3990 -56.0078 10.6537 101.0689 -0.9693 25.5012 4.6725 -4.3970 -8.7898 -0.8605 3.6542 -9.4183 4.6564 -27.8716 -9.0503 86.5356 1.0134 39.3490 -2.2402 -6.6607 -1.9964 0.7967 1.3701 -10.9831 2.2547 
